<svg xmlns="http://www.w3.org/2000/svg" xmlns:xlink="http://www.w3.org/1999/xlink" width="188.164" height="27.035" viewBox="0 0 188.164 27.035">
  <defs>
    <clipPath id="clip-path">
      <rect id="Rectangle_2246" data-name="Rectangle 2246" width="188.163" height="27.035" fill="#fff"/>
    </clipPath>
  </defs>
  <g id="Group_10334" data-name="Group 10334" transform="translate(-101 -93.827)">
    <g id="Group_9845" data-name="Group 9845" transform="translate(101 93.828)">
      <rect id="Rectangle_2243" data-name="Rectangle 2243" width="3.985" height="16.583" transform="translate(31.679 8.079)" fill="#fff"/>
      <g id="Group_9253" data-name="Group 9253" transform="translate(0 0)">
        <g id="Group_9252" data-name="Group 9252" clip-path="url(#clip-path)">
          <path id="Path_10738" data-name="Path 10738" d="M81.705,16.537h3.979v1.226A6.943,6.943,0,0,1,90.2,16.076c4.54,0,7.557,2.682,7.557,6.728V33.12H93.775V23.271c0-2.226-1.627-3.683-4.045-3.683s-4.045,1.456-4.045,3.683V33.12H81.705Z" transform="translate(-42.993 -8.459)" fill="#fff"/>
          <path id="Path_10739" data-name="Path 10739" d="M122.011,22.539V13.519h-2.655V10.205h2.655V4.038h3.979v6.167h4.177v3.314H125.99v9.019a1.357,1.357,0,0,0,1.456,1.391h2.885v2.853a7.777,7.777,0,0,1-2.82.467c-3.314,0-5.5-1.891-5.5-4.711" transform="translate(-62.805 -2.125)" fill="#fff"/>
          <path id="Path_10740" data-name="Path 10740" d="M153.889,16.07c-5.4,0-8.987,3.514-8.987,8.755s3.584,8.755,8.987,8.755a8.773,8.773,0,0,0,8.589-6.1h-4.042a5.033,5.033,0,0,1-4.547,2.787,4.85,4.85,0,0,1-4.94-4.348h13.6l.328-.328v-.764c0-5.242-3.578-8.755-8.987-8.755M149.218,22.6a5.006,5.006,0,0,1,9.347,0Z" transform="translate(-76.247 -8.456)" fill="#fff"/>
          <rect id="Rectangle_2244" data-name="Rectangle 2244" width="3.979" height="22.749" transform="translate(89.017 1.913)" fill="#fff"/>
          <rect id="Rectangle_2245" data-name="Rectangle 2245" width="3.979" height="22.749" transform="translate(96.712 1.913)" fill="#fff"/>
          <path id="Path_10741" data-name="Path 10741" d="M226.532,16.07c-5.4,0-8.987,3.514-8.987,8.755s3.584,8.755,8.987,8.755a8.773,8.773,0,0,0,8.589-6.1h-4.042a5.033,5.033,0,0,1-4.547,2.787,4.85,4.85,0,0,1-4.94-4.348h13.6l.328-.328v-.764c0-5.242-3.578-8.755-8.987-8.755M221.861,22.6a5.006,5.006,0,0,1,9.347,0Z" transform="translate(-114.472 -8.456)" fill="#fff"/>
          <path id="Path_10742" data-name="Path 10742" d="M259.124,24.823c0-5.238,3.583-8.755,8.987-8.755a8.419,8.419,0,0,1,8.656,7.029h-3.814a4.776,4.776,0,0,0-4.842-3.512c-3.018,0-5.007,2.089-5.007,5.238s1.99,5.238,5.007,5.238a4.792,4.792,0,0,0,4.875-3.677H276.8a8.458,8.458,0,0,1-8.69,7.195c-5.4,0-8.987-3.518-8.987-8.756" transform="translate(-136.35 -8.455)" fill="#fff"/>
          <path id="Path_10743" data-name="Path 10743" d="M300.058,22.539V13.519H297.4V10.205h2.655V4.038h3.979v6.167h4.177v3.314h-4.177v9.019a1.357,1.357,0,0,0,1.456,1.391h2.885v2.853a7.766,7.766,0,0,1-2.814.467c-3.32,0-5.507-1.891-5.507-4.711" transform="translate(-156.493 -2.125)" fill="#fff"/>
          <path id="Path_10744" data-name="Path 10744" d="M341.8,33.628h-3.979V32.4a6.943,6.943,0,0,1-4.513,1.687c-4.54,0-7.557-2.682-7.557-6.728V17.045h3.979v9.849c0,2.226,1.627,3.683,4.045,3.683s4.045-1.456,4.045-3.683V17.045H341.8Z" transform="translate(-171.41 -8.969)" fill="#fff"/>
          <path id="Path_10745" data-name="Path 10745" d="M364.665,27.48h3.749c.132,1.66,1.72,2.786,3.946,2.786s3.71-.863,3.71-2.154c0-.8-.995-1.363-4.078-1.957-4.809-1.094-6.331-2.193-6.331-4.941,0-3.083,2.687-5.139,6.7-5.139a7.206,7.206,0,0,1,6.931,4.309l-3.65.9a3.553,3.553,0,0,0-3.281-1.891c-1.627,0-2.721.665-2.721,1.627,0,.693.764,1.127,3.116,1.655,5.54,1.159,7.294,2.424,7.294,5.441,0,3.282-3.083,5.469-7.689,5.469-4.48,0-7.563-2.451-7.7-6.1" transform="translate(-191.886 -8.458)" fill="#fff"/>
          <path id="Path_10746" data-name="Path 10746" d="M70.848,6.022a1.99,1.99,0,1,0-1.989,1.989,1.989,1.989,0,0,0,1.989-1.989" transform="translate(-35.186 -2.122)" fill="#fff"/>
          <path id="Path_10747" data-name="Path 10747" d="M19.581,0H7.451A7.45,7.45,0,0,0,0,7.448V19.584a7.453,7.453,0,0,0,7.451,7.451h12.13a7.451,7.451,0,0,0,7.451-7.451V7.448A7.448,7.448,0,0,0,19.581,0m2.025,13.737a8.09,8.09,0,1,1-16.18-.075V5.205H17.861v5.929a.4.4,0,0,1-.4.4H16.4a.4.4,0,0,1-.406-.4V7.068H7.292v6.669a6.226,6.226,0,1,0,12.451-.065V8.97a.341.341,0,0,1,.341-.341h1.185a.34.34,0,0,1,.337.341Zm-12.082,0h1.194a.34.34,0,0,1,.335.3A2.479,2.479,0,0,0,15.979,14a.337.337,0,0,1,.337-.3H17.5a.343.343,0,0,1,.341.373,4.344,4.344,0,0,1-8.658.042.345.345,0,0,1,.338-.376m-.8-3.6a1.4,1.4,0,1,1,1.4,1.4,1.4,1.4,0,0,1-1.4-1.4" transform="translate(0 0)" fill="#fff"/>
        </g>
      </g>
    </g>
  </g>
</svg>
